<?xml version="1.0" encoding="UTF-8"?>
<svg width="28px" height="28px" viewBox="0 0 28 28" version="1.1" xmlns="http://www.w3.org/2000/svg" xmlns:xlink="http://www.w3.org/1999/xlink">
    <title>spaceship</title>
    <g id="Page-1" stroke="none" stroke-width="1" fill="none" fill-rule="evenodd">
        <g id="Redesign-v1" transform="translate(-1228.000000, -3576.000000)" fill="#00BBFF" fill-rule="nonzero">
            <g id="5" transform="translate(363.000000, 3240.000000)">
                <g id="Group-7" transform="translate(765.000000, 94.000000)">
                    <g id="icon" transform="translate(83.000000, 223.000000)">
                        <g id="spaceship" transform="translate(17.000000, 19.000000)">
                            <path d="M12.775,3.15 C8.67134101,2.56943914 4.62455868,4.53057212 2.5375,8.11125 C2.33477778,8.45490038 2.39020111,8.89216886 2.67225,9.174375 L4.96125,11.4625 C7.01531598,8.22137393 9.66700269,5.40043062 12.775,3.15 L12.775,3.15 Z" id="Path"></path>
                            <path d="M16.5305,23.029125 L18.825625,25.32425 C19.1079721,25.6067363 19.5457707,25.6621811 19.889625,25.459 C20.6358004,25.0216372 21.3242444,24.4925172 21.938875,23.884 C24.233557,21.606153 25.3103766,18.3740703 24.840375,15.175125 C22.5902258,18.2935049 19.7707454,20.9583102 16.5305,23.029125 Z" id="Path"></path>
                            <path d="M27.7445,0.2625 C27.5691256,0.0855670961 27.3275589,-0.00966289274 27.078625,-5.82867088e-16 C10.815,0.8505 4.8125,15.329125 4.753,15.47525 C4.62233779,15.8005462 4.69843558,16.1724269 4.946375,16.42025 L11.580625,23.053625 C11.8298191,23.3031526 12.2044506,23.3786998 12.530875,23.24525 C12.676125,23.1875 27.0795,17.11325 28,0.92575 C28.0125058,0.678475494 27.9196678,0.437478067 27.7445,0.2625 Z M16.1875,14 C14.9793771,14 14,13.0206229 14,11.8125 C14,10.6043771 14.9793771,9.625 16.1875,9.625 C17.3956229,9.625 18.375,10.6043771 18.375,11.8125 C18.375,13.0206229 17.3956229,14 16.1875,14 Z" id="Shape"></path>
                            <path d="M6.8495,21.1505 C8.21583678,22.5172495 8.21583678,24.7327505 6.8495,26.0995 C5.48275,27.467125 0,28 0,28 C0,28 0.532875,22.51725 1.9005,21.1505 C3.26724948,19.7841632 5.48275052,19.7841632 6.8495,21.1505 Z" id="Path"></path>
                        </g>
                    </g>
                </g>
            </g>
        </g>
    </g>
</svg>