<?xml version="1.0" encoding="UTF-8"?>
<svg width="22px" height="22px" viewBox="0 0 22 22" version="1.1" xmlns="http://www.w3.org/2000/svg" xmlns:xlink="http://www.w3.org/1999/xlink">
    <title>webpage</title>
    <g id="Page-1" stroke="none" stroke-width="1" fill="none" fill-rule="evenodd">
        <g id="Redesign-v1" transform="translate(-447.000000, -1999.000000)" fill="#624CD2" fill-rule="nonzero">
            <g id="3" transform="translate(390.000000, 1673.000000)">
                <g id="icon-copy" transform="translate(37.000000, 305.000000)">
                    <g id="webpage" transform="translate(20.000000, 21.000000)">
                        <path d="M20.625,0 L1.375,0 C0.55,0 0,0.55 0,1.375 L0,4.125 C0,4.95 0.55,5.5 1.375,5.5 L20.625,5.5 C21.45,5.5 22,4.95 22,4.125 L22,1.375 C22,0.55 21.45,0 20.625,0 Z" id="Path"></path>
                        <path d="M4.125,8.25 L1.375,8.25 C0.55,8.25 0,8.8 0,9.625 L0,20.625 C0,21.45 0.55,22 1.375,22 L4.125,22 C4.95,22 5.5,21.45 5.5,20.625 L5.5,9.625 C5.5,8.8 4.95,8.25 4.125,8.25 Z" id="Path"></path>
                        <path d="M20.625,8.25 L9.625,8.25 C8.8,8.25 8.25,8.8 8.25,9.625 L8.25,20.625 C8.25,21.45 8.8,22 9.625,22 L20.625,22 C21.45,22 22,21.45 22,20.625 L22,9.625 C22,8.8 21.45,8.25 20.625,8.25 Z" id="Path"></path>
                    </g>
                </g>
            </g>
        </g>
    </g>
</svg>
